<mxfile host="app.diagrams.net" modified="2021-08-09T02:41:23.783Z" agent="5.0 (Windows NT 10.0; Win64; x64) AppleWebKit/537.36 (KHTML, like Gecko) Chrome/92.0.4515.131 Safari/537.36" etag="1nZJ2sBjFgbRAnbR-9w6" version="14.9.5" type="github">
  <diagram name="Page-1" id="9f46799a-70d6-7492-0946-bef42562c5a5">
    <mxGraphModel dx="1422" dy="762" grid="1" gridSize="10" guides="1" tooltips="1" connect="1" arrows="1" fold="1" page="1" pageScale="1" pageWidth="1100" pageHeight="850" background="none" math="0" shadow="0">
      <root>
        <mxCell id="0" />
        <mxCell id="1" parent="0" />
        <mxCell id="hNI0bUxyWP1vLQ-U7evv-1" value="barang" style="shape=table;startSize=30;container=1;collapsible=1;childLayout=tableLayout;fixedRows=1;rowLines=0;fontStyle=1;align=center;resizeLast=1;" vertex="1" parent="1">
          <mxGeometry x="40" y="50" width="180" height="318" as="geometry" />
        </mxCell>
        <mxCell id="hNI0bUxyWP1vLQ-U7evv-2" value="" style="shape=partialRectangle;collapsible=0;dropTarget=0;pointerEvents=0;fillColor=none;top=0;left=0;bottom=1;right=0;points=[[0,0.5],[1,0.5]];portConstraint=eastwest;" vertex="1" parent="hNI0bUxyWP1vLQ-U7evv-1">
          <mxGeometry y="30" width="180" height="30" as="geometry" />
        </mxCell>
        <mxCell id="hNI0bUxyWP1vLQ-U7evv-3" value="PK" style="shape=partialRectangle;connectable=0;fillColor=none;top=0;left=0;bottom=0;right=0;fontStyle=1;overflow=hidden;" vertex="1" parent="hNI0bUxyWP1vLQ-U7evv-2">
          <mxGeometry width="30" height="30" as="geometry" />
        </mxCell>
        <mxCell id="hNI0bUxyWP1vLQ-U7evv-4" value="id_barang" style="shape=partialRectangle;connectable=0;fillColor=none;top=0;left=0;bottom=0;right=0;align=left;spacingLeft=6;fontStyle=5;overflow=hidden;" vertex="1" parent="hNI0bUxyWP1vLQ-U7evv-2">
          <mxGeometry x="30" width="150" height="30" as="geometry" />
        </mxCell>
        <mxCell id="hNI0bUxyWP1vLQ-U7evv-5" value="" style="shape=partialRectangle;collapsible=0;dropTarget=0;pointerEvents=0;fillColor=none;top=0;left=0;bottom=0;right=0;points=[[0,0.5],[1,0.5]];portConstraint=eastwest;" vertex="1" parent="hNI0bUxyWP1vLQ-U7evv-1">
          <mxGeometry y="60" width="180" height="30" as="geometry" />
        </mxCell>
        <mxCell id="hNI0bUxyWP1vLQ-U7evv-6" value="" style="shape=partialRectangle;connectable=0;fillColor=none;top=0;left=0;bottom=0;right=0;editable=1;overflow=hidden;" vertex="1" parent="hNI0bUxyWP1vLQ-U7evv-5">
          <mxGeometry width="30" height="30" as="geometry" />
        </mxCell>
        <mxCell id="hNI0bUxyWP1vLQ-U7evv-7" value="sku" style="shape=partialRectangle;connectable=0;fillColor=none;top=0;left=0;bottom=0;right=0;align=left;spacingLeft=6;overflow=hidden;" vertex="1" parent="hNI0bUxyWP1vLQ-U7evv-5">
          <mxGeometry x="30" width="150" height="30" as="geometry" />
        </mxCell>
        <mxCell id="hNI0bUxyWP1vLQ-U7evv-8" value="" style="shape=partialRectangle;collapsible=0;dropTarget=0;pointerEvents=0;fillColor=none;top=0;left=0;bottom=0;right=0;points=[[0,0.5],[1,0.5]];portConstraint=eastwest;" vertex="1" parent="hNI0bUxyWP1vLQ-U7evv-1">
          <mxGeometry y="90" width="180" height="30" as="geometry" />
        </mxCell>
        <mxCell id="hNI0bUxyWP1vLQ-U7evv-9" value="" style="shape=partialRectangle;connectable=0;fillColor=none;top=0;left=0;bottom=0;right=0;editable=1;overflow=hidden;" vertex="1" parent="hNI0bUxyWP1vLQ-U7evv-8">
          <mxGeometry width="30" height="30" as="geometry" />
        </mxCell>
        <mxCell id="hNI0bUxyWP1vLQ-U7evv-10" value="id_kategori" style="shape=partialRectangle;connectable=0;fillColor=none;top=0;left=0;bottom=0;right=0;align=left;spacingLeft=6;overflow=hidden;" vertex="1" parent="hNI0bUxyWP1vLQ-U7evv-8">
          <mxGeometry x="30" width="150" height="30" as="geometry" />
        </mxCell>
        <mxCell id="hNI0bUxyWP1vLQ-U7evv-11" value="" style="shape=partialRectangle;collapsible=0;dropTarget=0;pointerEvents=0;fillColor=none;top=0;left=0;bottom=0;right=0;points=[[0,0.5],[1,0.5]];portConstraint=eastwest;" vertex="1" parent="hNI0bUxyWP1vLQ-U7evv-1">
          <mxGeometry y="120" width="180" height="30" as="geometry" />
        </mxCell>
        <mxCell id="hNI0bUxyWP1vLQ-U7evv-12" value="" style="shape=partialRectangle;connectable=0;fillColor=none;top=0;left=0;bottom=0;right=0;editable=1;overflow=hidden;" vertex="1" parent="hNI0bUxyWP1vLQ-U7evv-11">
          <mxGeometry width="30" height="30" as="geometry" />
        </mxCell>
        <mxCell id="hNI0bUxyWP1vLQ-U7evv-13" value="nama_barang" style="shape=partialRectangle;connectable=0;fillColor=none;top=0;left=0;bottom=0;right=0;align=left;spacingLeft=6;overflow=hidden;" vertex="1" parent="hNI0bUxyWP1vLQ-U7evv-11">
          <mxGeometry x="30" width="150" height="30" as="geometry" />
        </mxCell>
        <mxCell id="hNI0bUxyWP1vLQ-U7evv-15" value="" style="shape=partialRectangle;collapsible=0;dropTarget=0;pointerEvents=0;fillColor=none;top=0;left=0;bottom=0;right=0;points=[[0,0.5],[1,0.5]];portConstraint=eastwest;" vertex="1" parent="hNI0bUxyWP1vLQ-U7evv-1">
          <mxGeometry y="150" width="180" height="30" as="geometry" />
        </mxCell>
        <mxCell id="hNI0bUxyWP1vLQ-U7evv-16" value="" style="shape=partialRectangle;connectable=0;fillColor=none;top=0;left=0;bottom=0;right=0;editable=1;overflow=hidden;" vertex="1" parent="hNI0bUxyWP1vLQ-U7evv-15">
          <mxGeometry width="30" height="30" as="geometry" />
        </mxCell>
        <mxCell id="hNI0bUxyWP1vLQ-U7evv-17" value="harga_barang" style="shape=partialRectangle;connectable=0;fillColor=none;top=0;left=0;bottom=0;right=0;align=left;spacingLeft=6;overflow=hidden;" vertex="1" parent="hNI0bUxyWP1vLQ-U7evv-15">
          <mxGeometry x="30" width="150" height="30" as="geometry" />
        </mxCell>
        <mxCell id="hNI0bUxyWP1vLQ-U7evv-18" value="" style="shape=partialRectangle;collapsible=0;dropTarget=0;pointerEvents=0;fillColor=none;top=0;left=0;bottom=0;right=0;points=[[0,0.5],[1,0.5]];portConstraint=eastwest;" vertex="1" parent="hNI0bUxyWP1vLQ-U7evv-1">
          <mxGeometry y="180" width="180" height="30" as="geometry" />
        </mxCell>
        <mxCell id="hNI0bUxyWP1vLQ-U7evv-19" value="" style="shape=partialRectangle;connectable=0;fillColor=none;top=0;left=0;bottom=0;right=0;editable=1;overflow=hidden;" vertex="1" parent="hNI0bUxyWP1vLQ-U7evv-18">
          <mxGeometry width="30" height="30" as="geometry" />
        </mxCell>
        <mxCell id="hNI0bUxyWP1vLQ-U7evv-20" value="deskripsi" style="shape=partialRectangle;connectable=0;fillColor=none;top=0;left=0;bottom=0;right=0;align=left;spacingLeft=6;overflow=hidden;" vertex="1" parent="hNI0bUxyWP1vLQ-U7evv-18">
          <mxGeometry x="30" width="150" height="30" as="geometry" />
        </mxCell>
        <mxCell id="hNI0bUxyWP1vLQ-U7evv-21" value="keyword" style="shape=table;startSize=30;container=1;collapsible=1;childLayout=tableLayout;fixedRows=1;rowLines=0;fontStyle=1;align=center;resizeLast=1;" vertex="1" parent="1">
          <mxGeometry x="280" y="50" width="180" height="160" as="geometry" />
        </mxCell>
        <mxCell id="hNI0bUxyWP1vLQ-U7evv-22" value="" style="shape=partialRectangle;collapsible=0;dropTarget=0;pointerEvents=0;fillColor=none;top=0;left=0;bottom=1;right=0;points=[[0,0.5],[1,0.5]];portConstraint=eastwest;" vertex="1" parent="hNI0bUxyWP1vLQ-U7evv-21">
          <mxGeometry y="30" width="180" height="30" as="geometry" />
        </mxCell>
        <mxCell id="hNI0bUxyWP1vLQ-U7evv-23" value="PK" style="shape=partialRectangle;connectable=0;fillColor=none;top=0;left=0;bottom=0;right=0;fontStyle=1;overflow=hidden;" vertex="1" parent="hNI0bUxyWP1vLQ-U7evv-22">
          <mxGeometry width="30" height="30" as="geometry" />
        </mxCell>
        <mxCell id="hNI0bUxyWP1vLQ-U7evv-24" value="id_keyword" style="shape=partialRectangle;connectable=0;fillColor=none;top=0;left=0;bottom=0;right=0;align=left;spacingLeft=6;fontStyle=5;overflow=hidden;" vertex="1" parent="hNI0bUxyWP1vLQ-U7evv-22">
          <mxGeometry x="30" width="150" height="30" as="geometry" />
        </mxCell>
        <mxCell id="hNI0bUxyWP1vLQ-U7evv-25" value="" style="shape=partialRectangle;collapsible=0;dropTarget=0;pointerEvents=0;fillColor=none;top=0;left=0;bottom=0;right=0;points=[[0,0.5],[1,0.5]];portConstraint=eastwest;" vertex="1" parent="hNI0bUxyWP1vLQ-U7evv-21">
          <mxGeometry y="60" width="180" height="30" as="geometry" />
        </mxCell>
        <mxCell id="hNI0bUxyWP1vLQ-U7evv-26" value="" style="shape=partialRectangle;connectable=0;fillColor=none;top=0;left=0;bottom=0;right=0;editable=1;overflow=hidden;" vertex="1" parent="hNI0bUxyWP1vLQ-U7evv-25">
          <mxGeometry width="30" height="30" as="geometry" />
        </mxCell>
        <mxCell id="hNI0bUxyWP1vLQ-U7evv-27" value="nama_keyword" style="shape=partialRectangle;connectable=0;fillColor=none;top=0;left=0;bottom=0;right=0;align=left;spacingLeft=6;overflow=hidden;" vertex="1" parent="hNI0bUxyWP1vLQ-U7evv-25">
          <mxGeometry x="30" width="150" height="30" as="geometry" />
        </mxCell>
        <mxCell id="hNI0bUxyWP1vLQ-U7evv-28" value="" style="shape=partialRectangle;collapsible=0;dropTarget=0;pointerEvents=0;fillColor=none;top=0;left=0;bottom=0;right=0;points=[[0,0.5],[1,0.5]];portConstraint=eastwest;" vertex="1" parent="hNI0bUxyWP1vLQ-U7evv-21">
          <mxGeometry y="90" width="180" height="30" as="geometry" />
        </mxCell>
        <mxCell id="hNI0bUxyWP1vLQ-U7evv-29" value="" style="shape=partialRectangle;connectable=0;fillColor=none;top=0;left=0;bottom=0;right=0;editable=1;overflow=hidden;" vertex="1" parent="hNI0bUxyWP1vLQ-U7evv-28">
          <mxGeometry width="30" height="30" as="geometry" />
        </mxCell>
        <mxCell id="hNI0bUxyWP1vLQ-U7evv-30" value="disisipkan" style="shape=partialRectangle;connectable=0;fillColor=none;top=0;left=0;bottom=0;right=0;align=left;spacingLeft=6;overflow=hidden;" vertex="1" parent="hNI0bUxyWP1vLQ-U7evv-28">
          <mxGeometry x="30" width="150" height="30" as="geometry" />
        </mxCell>
        <mxCell id="hNI0bUxyWP1vLQ-U7evv-31" value="" style="shape=partialRectangle;collapsible=0;dropTarget=0;pointerEvents=0;fillColor=none;top=0;left=0;bottom=0;right=0;points=[[0,0.5],[1,0.5]];portConstraint=eastwest;" vertex="1" parent="hNI0bUxyWP1vLQ-U7evv-21">
          <mxGeometry y="120" width="180" height="30" as="geometry" />
        </mxCell>
        <mxCell id="hNI0bUxyWP1vLQ-U7evv-32" value="" style="shape=partialRectangle;connectable=0;fillColor=none;top=0;left=0;bottom=0;right=0;editable=1;overflow=hidden;" vertex="1" parent="hNI0bUxyWP1vLQ-U7evv-31">
          <mxGeometry width="30" height="30" as="geometry" />
        </mxCell>
        <mxCell id="hNI0bUxyWP1vLQ-U7evv-33" value="" style="shape=partialRectangle;connectable=0;fillColor=none;top=0;left=0;bottom=0;right=0;align=left;spacingLeft=6;overflow=hidden;" vertex="1" parent="hNI0bUxyWP1vLQ-U7evv-31">
          <mxGeometry x="30" width="150" height="30" as="geometry" />
        </mxCell>
        <mxCell id="hNI0bUxyWP1vLQ-U7evv-34" value="judul" style="shape=table;startSize=30;container=1;collapsible=1;childLayout=tableLayout;fixedRows=1;rowLines=0;fontStyle=1;align=center;resizeLast=1;" vertex="1" parent="1">
          <mxGeometry x="280" y="220" width="180" height="160" as="geometry" />
        </mxCell>
        <mxCell id="hNI0bUxyWP1vLQ-U7evv-35" value="" style="shape=partialRectangle;collapsible=0;dropTarget=0;pointerEvents=0;fillColor=none;top=0;left=0;bottom=1;right=0;points=[[0,0.5],[1,0.5]];portConstraint=eastwest;" vertex="1" parent="hNI0bUxyWP1vLQ-U7evv-34">
          <mxGeometry y="30" width="180" height="30" as="geometry" />
        </mxCell>
        <mxCell id="hNI0bUxyWP1vLQ-U7evv-36" value="PK" style="shape=partialRectangle;connectable=0;fillColor=none;top=0;left=0;bottom=0;right=0;fontStyle=1;overflow=hidden;" vertex="1" parent="hNI0bUxyWP1vLQ-U7evv-35">
          <mxGeometry width="30" height="30" as="geometry" />
        </mxCell>
        <mxCell id="hNI0bUxyWP1vLQ-U7evv-37" value="id_judul" style="shape=partialRectangle;connectable=0;fillColor=none;top=0;left=0;bottom=0;right=0;align=left;spacingLeft=6;fontStyle=5;overflow=hidden;" vertex="1" parent="hNI0bUxyWP1vLQ-U7evv-35">
          <mxGeometry x="30" width="150" height="30" as="geometry" />
        </mxCell>
        <mxCell id="hNI0bUxyWP1vLQ-U7evv-38" value="" style="shape=partialRectangle;collapsible=0;dropTarget=0;pointerEvents=0;fillColor=none;top=0;left=0;bottom=0;right=0;points=[[0,0.5],[1,0.5]];portConstraint=eastwest;" vertex="1" parent="hNI0bUxyWP1vLQ-U7evv-34">
          <mxGeometry y="60" width="180" height="30" as="geometry" />
        </mxCell>
        <mxCell id="hNI0bUxyWP1vLQ-U7evv-39" value="" style="shape=partialRectangle;connectable=0;fillColor=none;top=0;left=0;bottom=0;right=0;editable=1;overflow=hidden;" vertex="1" parent="hNI0bUxyWP1vLQ-U7evv-38">
          <mxGeometry width="30" height="30" as="geometry" />
        </mxCell>
        <mxCell id="hNI0bUxyWP1vLQ-U7evv-40" value="id_barang" style="shape=partialRectangle;connectable=0;fillColor=none;top=0;left=0;bottom=0;right=0;align=left;spacingLeft=6;overflow=hidden;" vertex="1" parent="hNI0bUxyWP1vLQ-U7evv-38">
          <mxGeometry x="30" width="150" height="30" as="geometry" />
        </mxCell>
        <mxCell id="hNI0bUxyWP1vLQ-U7evv-41" value="" style="shape=partialRectangle;collapsible=0;dropTarget=0;pointerEvents=0;fillColor=none;top=0;left=0;bottom=0;right=0;points=[[0,0.5],[1,0.5]];portConstraint=eastwest;" vertex="1" parent="hNI0bUxyWP1vLQ-U7evv-34">
          <mxGeometry y="90" width="180" height="30" as="geometry" />
        </mxCell>
        <mxCell id="hNI0bUxyWP1vLQ-U7evv-42" value="" style="shape=partialRectangle;connectable=0;fillColor=none;top=0;left=0;bottom=0;right=0;editable=1;overflow=hidden;" vertex="1" parent="hNI0bUxyWP1vLQ-U7evv-41">
          <mxGeometry width="30" height="30" as="geometry" />
        </mxCell>
        <mxCell id="hNI0bUxyWP1vLQ-U7evv-43" value="nama_judul" style="shape=partialRectangle;connectable=0;fillColor=none;top=0;left=0;bottom=0;right=0;align=left;spacingLeft=6;overflow=hidden;" vertex="1" parent="hNI0bUxyWP1vLQ-U7evv-41">
          <mxGeometry x="30" width="150" height="30" as="geometry" />
        </mxCell>
        <mxCell id="hNI0bUxyWP1vLQ-U7evv-44" value="" style="shape=partialRectangle;collapsible=0;dropTarget=0;pointerEvents=0;fillColor=none;top=0;left=0;bottom=0;right=0;points=[[0,0.5],[1,0.5]];portConstraint=eastwest;" vertex="1" parent="hNI0bUxyWP1vLQ-U7evv-34">
          <mxGeometry y="120" width="180" height="30" as="geometry" />
        </mxCell>
        <mxCell id="hNI0bUxyWP1vLQ-U7evv-45" value="" style="shape=partialRectangle;connectable=0;fillColor=none;top=0;left=0;bottom=0;right=0;editable=1;overflow=hidden;" vertex="1" parent="hNI0bUxyWP1vLQ-U7evv-44">
          <mxGeometry width="30" height="30" as="geometry" />
        </mxCell>
        <mxCell id="hNI0bUxyWP1vLQ-U7evv-46" value="" style="shape=partialRectangle;connectable=0;fillColor=none;top=0;left=0;bottom=0;right=0;align=left;spacingLeft=6;overflow=hidden;" vertex="1" parent="hNI0bUxyWP1vLQ-U7evv-44">
          <mxGeometry x="30" width="150" height="30" as="geometry" />
        </mxCell>
        <mxCell id="hNI0bUxyWP1vLQ-U7evv-47" value="kategori" style="shape=table;startSize=30;container=1;collapsible=1;childLayout=tableLayout;fixedRows=1;rowLines=0;fontStyle=1;align=center;resizeLast=1;" vertex="1" parent="1">
          <mxGeometry x="500" y="50" width="180" height="160" as="geometry" />
        </mxCell>
        <mxCell id="hNI0bUxyWP1vLQ-U7evv-48" value="" style="shape=partialRectangle;collapsible=0;dropTarget=0;pointerEvents=0;fillColor=none;top=0;left=0;bottom=1;right=0;points=[[0,0.5],[1,0.5]];portConstraint=eastwest;" vertex="1" parent="hNI0bUxyWP1vLQ-U7evv-47">
          <mxGeometry y="30" width="180" height="30" as="geometry" />
        </mxCell>
        <mxCell id="hNI0bUxyWP1vLQ-U7evv-49" value="PK" style="shape=partialRectangle;connectable=0;fillColor=none;top=0;left=0;bottom=0;right=0;fontStyle=1;overflow=hidden;" vertex="1" parent="hNI0bUxyWP1vLQ-U7evv-48">
          <mxGeometry width="30" height="30" as="geometry" />
        </mxCell>
        <mxCell id="hNI0bUxyWP1vLQ-U7evv-50" value="id_kategori" style="shape=partialRectangle;connectable=0;fillColor=none;top=0;left=0;bottom=0;right=0;align=left;spacingLeft=6;fontStyle=5;overflow=hidden;" vertex="1" parent="hNI0bUxyWP1vLQ-U7evv-48">
          <mxGeometry x="30" width="150" height="30" as="geometry" />
        </mxCell>
        <mxCell id="hNI0bUxyWP1vLQ-U7evv-51" value="" style="shape=partialRectangle;collapsible=0;dropTarget=0;pointerEvents=0;fillColor=none;top=0;left=0;bottom=0;right=0;points=[[0,0.5],[1,0.5]];portConstraint=eastwest;" vertex="1" parent="hNI0bUxyWP1vLQ-U7evv-47">
          <mxGeometry y="60" width="180" height="30" as="geometry" />
        </mxCell>
        <mxCell id="hNI0bUxyWP1vLQ-U7evv-52" value="" style="shape=partialRectangle;connectable=0;fillColor=none;top=0;left=0;bottom=0;right=0;editable=1;overflow=hidden;" vertex="1" parent="hNI0bUxyWP1vLQ-U7evv-51">
          <mxGeometry width="30" height="30" as="geometry" />
        </mxCell>
        <mxCell id="hNI0bUxyWP1vLQ-U7evv-53" value="nama_kategori" style="shape=partialRectangle;connectable=0;fillColor=none;top=0;left=0;bottom=0;right=0;align=left;spacingLeft=6;overflow=hidden;" vertex="1" parent="hNI0bUxyWP1vLQ-U7evv-51">
          <mxGeometry x="30" width="150" height="30" as="geometry" />
        </mxCell>
        <mxCell id="hNI0bUxyWP1vLQ-U7evv-54" value="" style="shape=partialRectangle;collapsible=0;dropTarget=0;pointerEvents=0;fillColor=none;top=0;left=0;bottom=0;right=0;points=[[0,0.5],[1,0.5]];portConstraint=eastwest;" vertex="1" parent="hNI0bUxyWP1vLQ-U7evv-47">
          <mxGeometry y="90" width="180" height="30" as="geometry" />
        </mxCell>
        <mxCell id="hNI0bUxyWP1vLQ-U7evv-55" value="" style="shape=partialRectangle;connectable=0;fillColor=none;top=0;left=0;bottom=0;right=0;editable=1;overflow=hidden;" vertex="1" parent="hNI0bUxyWP1vLQ-U7evv-54">
          <mxGeometry width="30" height="30" as="geometry" />
        </mxCell>
        <mxCell id="hNI0bUxyWP1vLQ-U7evv-56" value="" style="shape=partialRectangle;connectable=0;fillColor=none;top=0;left=0;bottom=0;right=0;align=left;spacingLeft=6;overflow=hidden;" vertex="1" parent="hNI0bUxyWP1vLQ-U7evv-54">
          <mxGeometry x="30" width="150" height="30" as="geometry" />
        </mxCell>
        <mxCell id="hNI0bUxyWP1vLQ-U7evv-57" value="" style="shape=partialRectangle;collapsible=0;dropTarget=0;pointerEvents=0;fillColor=none;top=0;left=0;bottom=0;right=0;points=[[0,0.5],[1,0.5]];portConstraint=eastwest;" vertex="1" parent="hNI0bUxyWP1vLQ-U7evv-47">
          <mxGeometry y="120" width="180" height="30" as="geometry" />
        </mxCell>
        <mxCell id="hNI0bUxyWP1vLQ-U7evv-58" value="" style="shape=partialRectangle;connectable=0;fillColor=none;top=0;left=0;bottom=0;right=0;editable=1;overflow=hidden;" vertex="1" parent="hNI0bUxyWP1vLQ-U7evv-57">
          <mxGeometry width="30" height="30" as="geometry" />
        </mxCell>
        <mxCell id="hNI0bUxyWP1vLQ-U7evv-59" value="" style="shape=partialRectangle;connectable=0;fillColor=none;top=0;left=0;bottom=0;right=0;align=left;spacingLeft=6;overflow=hidden;" vertex="1" parent="hNI0bUxyWP1vLQ-U7evv-57">
          <mxGeometry x="30" width="150" height="30" as="geometry" />
        </mxCell>
        <mxCell id="hNI0bUxyWP1vLQ-U7evv-60" value="lokasi" style="shape=table;startSize=30;container=1;collapsible=1;childLayout=tableLayout;fixedRows=1;rowLines=0;fontStyle=1;align=center;resizeLast=1;" vertex="1" parent="1">
          <mxGeometry x="500" y="220" width="180" height="160" as="geometry" />
        </mxCell>
        <mxCell id="hNI0bUxyWP1vLQ-U7evv-61" value="" style="shape=partialRectangle;collapsible=0;dropTarget=0;pointerEvents=0;fillColor=none;top=0;left=0;bottom=1;right=0;points=[[0,0.5],[1,0.5]];portConstraint=eastwest;" vertex="1" parent="hNI0bUxyWP1vLQ-U7evv-60">
          <mxGeometry y="30" width="180" height="30" as="geometry" />
        </mxCell>
        <mxCell id="hNI0bUxyWP1vLQ-U7evv-62" value="PK" style="shape=partialRectangle;connectable=0;fillColor=none;top=0;left=0;bottom=0;right=0;fontStyle=1;overflow=hidden;" vertex="1" parent="hNI0bUxyWP1vLQ-U7evv-61">
          <mxGeometry width="30" height="30" as="geometry" />
        </mxCell>
        <mxCell id="hNI0bUxyWP1vLQ-U7evv-63" value="id_lokasi" style="shape=partialRectangle;connectable=0;fillColor=none;top=0;left=0;bottom=0;right=0;align=left;spacingLeft=6;fontStyle=5;overflow=hidden;" vertex="1" parent="hNI0bUxyWP1vLQ-U7evv-61">
          <mxGeometry x="30" width="150" height="30" as="geometry" />
        </mxCell>
        <mxCell id="hNI0bUxyWP1vLQ-U7evv-64" value="" style="shape=partialRectangle;collapsible=0;dropTarget=0;pointerEvents=0;fillColor=none;top=0;left=0;bottom=0;right=0;points=[[0,0.5],[1,0.5]];portConstraint=eastwest;" vertex="1" parent="hNI0bUxyWP1vLQ-U7evv-60">
          <mxGeometry y="60" width="180" height="30" as="geometry" />
        </mxCell>
        <mxCell id="hNI0bUxyWP1vLQ-U7evv-65" value="" style="shape=partialRectangle;connectable=0;fillColor=none;top=0;left=0;bottom=0;right=0;editable=1;overflow=hidden;" vertex="1" parent="hNI0bUxyWP1vLQ-U7evv-64">
          <mxGeometry width="30" height="30" as="geometry" />
        </mxCell>
        <mxCell id="hNI0bUxyWP1vLQ-U7evv-66" value="nama_lokasi" style="shape=partialRectangle;connectable=0;fillColor=none;top=0;left=0;bottom=0;right=0;align=left;spacingLeft=6;overflow=hidden;" vertex="1" parent="hNI0bUxyWP1vLQ-U7evv-64">
          <mxGeometry x="30" width="150" height="30" as="geometry" />
        </mxCell>
        <mxCell id="hNI0bUxyWP1vLQ-U7evv-67" value="" style="shape=partialRectangle;collapsible=0;dropTarget=0;pointerEvents=0;fillColor=none;top=0;left=0;bottom=0;right=0;points=[[0,0.5],[1,0.5]];portConstraint=eastwest;" vertex="1" parent="hNI0bUxyWP1vLQ-U7evv-60">
          <mxGeometry y="90" width="180" height="30" as="geometry" />
        </mxCell>
        <mxCell id="hNI0bUxyWP1vLQ-U7evv-68" value="" style="shape=partialRectangle;connectable=0;fillColor=none;top=0;left=0;bottom=0;right=0;editable=1;overflow=hidden;" vertex="1" parent="hNI0bUxyWP1vLQ-U7evv-67">
          <mxGeometry width="30" height="30" as="geometry" />
        </mxCell>
        <mxCell id="hNI0bUxyWP1vLQ-U7evv-69" value="" style="shape=partialRectangle;connectable=0;fillColor=none;top=0;left=0;bottom=0;right=0;align=left;spacingLeft=6;overflow=hidden;" vertex="1" parent="hNI0bUxyWP1vLQ-U7evv-67">
          <mxGeometry x="30" width="150" height="30" as="geometry" />
        </mxCell>
        <mxCell id="hNI0bUxyWP1vLQ-U7evv-70" value="" style="shape=partialRectangle;collapsible=0;dropTarget=0;pointerEvents=0;fillColor=none;top=0;left=0;bottom=0;right=0;points=[[0,0.5],[1,0.5]];portConstraint=eastwest;" vertex="1" parent="hNI0bUxyWP1vLQ-U7evv-60">
          <mxGeometry y="120" width="180" height="30" as="geometry" />
        </mxCell>
        <mxCell id="hNI0bUxyWP1vLQ-U7evv-71" value="" style="shape=partialRectangle;connectable=0;fillColor=none;top=0;left=0;bottom=0;right=0;editable=1;overflow=hidden;" vertex="1" parent="hNI0bUxyWP1vLQ-U7evv-70">
          <mxGeometry width="30" height="30" as="geometry" />
        </mxCell>
        <mxCell id="hNI0bUxyWP1vLQ-U7evv-72" value="" style="shape=partialRectangle;connectable=0;fillColor=none;top=0;left=0;bottom=0;right=0;align=left;spacingLeft=6;overflow=hidden;" vertex="1" parent="hNI0bUxyWP1vLQ-U7evv-70">
          <mxGeometry x="30" width="150" height="30" as="geometry" />
        </mxCell>
        <mxCell id="hNI0bUxyWP1vLQ-U7evv-73" value="gambar" style="shape=table;startSize=30;container=1;collapsible=1;childLayout=tableLayout;fixedRows=1;rowLines=0;fontStyle=1;align=center;resizeLast=1;" vertex="1" parent="1">
          <mxGeometry x="720" y="50" width="180" height="130" as="geometry" />
        </mxCell>
        <mxCell id="hNI0bUxyWP1vLQ-U7evv-74" value="" style="shape=partialRectangle;collapsible=0;dropTarget=0;pointerEvents=0;fillColor=none;top=0;left=0;bottom=1;right=0;points=[[0,0.5],[1,0.5]];portConstraint=eastwest;" vertex="1" parent="hNI0bUxyWP1vLQ-U7evv-73">
          <mxGeometry y="30" width="180" height="30" as="geometry" />
        </mxCell>
        <mxCell id="hNI0bUxyWP1vLQ-U7evv-75" value="PK" style="shape=partialRectangle;connectable=0;fillColor=none;top=0;left=0;bottom=0;right=0;fontStyle=1;overflow=hidden;" vertex="1" parent="hNI0bUxyWP1vLQ-U7evv-74">
          <mxGeometry width="30" height="30" as="geometry" />
        </mxCell>
        <mxCell id="hNI0bUxyWP1vLQ-U7evv-76" value="id_gambar" style="shape=partialRectangle;connectable=0;fillColor=none;top=0;left=0;bottom=0;right=0;align=left;spacingLeft=6;fontStyle=5;overflow=hidden;" vertex="1" parent="hNI0bUxyWP1vLQ-U7evv-74">
          <mxGeometry x="30" width="150" height="30" as="geometry" />
        </mxCell>
        <mxCell id="hNI0bUxyWP1vLQ-U7evv-77" value="" style="shape=partialRectangle;collapsible=0;dropTarget=0;pointerEvents=0;fillColor=none;top=0;left=0;bottom=0;right=0;points=[[0,0.5],[1,0.5]];portConstraint=eastwest;" vertex="1" parent="hNI0bUxyWP1vLQ-U7evv-73">
          <mxGeometry y="60" width="180" height="30" as="geometry" />
        </mxCell>
        <mxCell id="hNI0bUxyWP1vLQ-U7evv-78" value="" style="shape=partialRectangle;connectable=0;fillColor=none;top=0;left=0;bottom=0;right=0;editable=1;overflow=hidden;" vertex="1" parent="hNI0bUxyWP1vLQ-U7evv-77">
          <mxGeometry width="30" height="30" as="geometry" />
        </mxCell>
        <mxCell id="hNI0bUxyWP1vLQ-U7evv-79" value="id_barang" style="shape=partialRectangle;connectable=0;fillColor=none;top=0;left=0;bottom=0;right=0;align=left;spacingLeft=6;overflow=hidden;" vertex="1" parent="hNI0bUxyWP1vLQ-U7evv-77">
          <mxGeometry x="30" width="150" height="30" as="geometry" />
        </mxCell>
        <mxCell id="hNI0bUxyWP1vLQ-U7evv-80" value="" style="shape=partialRectangle;collapsible=0;dropTarget=0;pointerEvents=0;fillColor=none;top=0;left=0;bottom=0;right=0;points=[[0,0.5],[1,0.5]];portConstraint=eastwest;" vertex="1" parent="hNI0bUxyWP1vLQ-U7evv-73">
          <mxGeometry y="90" width="180" height="30" as="geometry" />
        </mxCell>
        <mxCell id="hNI0bUxyWP1vLQ-U7evv-81" value="" style="shape=partialRectangle;connectable=0;fillColor=none;top=0;left=0;bottom=0;right=0;editable=1;overflow=hidden;" vertex="1" parent="hNI0bUxyWP1vLQ-U7evv-80">
          <mxGeometry width="30" height="30" as="geometry" />
        </mxCell>
        <mxCell id="hNI0bUxyWP1vLQ-U7evv-82" value="path" style="shape=partialRectangle;connectable=0;fillColor=none;top=0;left=0;bottom=0;right=0;align=left;spacingLeft=6;overflow=hidden;" vertex="1" parent="hNI0bUxyWP1vLQ-U7evv-80">
          <mxGeometry x="30" width="150" height="30" as="geometry" />
        </mxCell>
        <mxCell id="hNI0bUxyWP1vLQ-U7evv-86" value="akun_fb" style="shape=table;startSize=30;container=1;collapsible=1;childLayout=tableLayout;fixedRows=1;rowLines=0;fontStyle=1;align=center;resizeLast=1;" vertex="1" parent="1">
          <mxGeometry x="720" y="220" width="180" height="160" as="geometry" />
        </mxCell>
        <mxCell id="hNI0bUxyWP1vLQ-U7evv-87" value="" style="shape=partialRectangle;collapsible=0;dropTarget=0;pointerEvents=0;fillColor=none;top=0;left=0;bottom=1;right=0;points=[[0,0.5],[1,0.5]];portConstraint=eastwest;" vertex="1" parent="hNI0bUxyWP1vLQ-U7evv-86">
          <mxGeometry y="30" width="180" height="30" as="geometry" />
        </mxCell>
        <mxCell id="hNI0bUxyWP1vLQ-U7evv-88" value="PK" style="shape=partialRectangle;connectable=0;fillColor=none;top=0;left=0;bottom=0;right=0;fontStyle=1;overflow=hidden;" vertex="1" parent="hNI0bUxyWP1vLQ-U7evv-87">
          <mxGeometry width="30" height="30" as="geometry" />
        </mxCell>
        <mxCell id="hNI0bUxyWP1vLQ-U7evv-89" value="id_akun" style="shape=partialRectangle;connectable=0;fillColor=none;top=0;left=0;bottom=0;right=0;align=left;spacingLeft=6;fontStyle=5;overflow=hidden;" vertex="1" parent="hNI0bUxyWP1vLQ-U7evv-87">
          <mxGeometry x="30" width="150" height="30" as="geometry" />
        </mxCell>
        <mxCell id="hNI0bUxyWP1vLQ-U7evv-90" value="" style="shape=partialRectangle;collapsible=0;dropTarget=0;pointerEvents=0;fillColor=none;top=0;left=0;bottom=0;right=0;points=[[0,0.5],[1,0.5]];portConstraint=eastwest;" vertex="1" parent="hNI0bUxyWP1vLQ-U7evv-86">
          <mxGeometry y="60" width="180" height="30" as="geometry" />
        </mxCell>
        <mxCell id="hNI0bUxyWP1vLQ-U7evv-91" value="" style="shape=partialRectangle;connectable=0;fillColor=none;top=0;left=0;bottom=0;right=0;editable=1;overflow=hidden;" vertex="1" parent="hNI0bUxyWP1vLQ-U7evv-90">
          <mxGeometry width="30" height="30" as="geometry" />
        </mxCell>
        <mxCell id="hNI0bUxyWP1vLQ-U7evv-92" value="Row 1" style="shape=partialRectangle;connectable=0;fillColor=none;top=0;left=0;bottom=0;right=0;align=left;spacingLeft=6;overflow=hidden;" vertex="1" parent="hNI0bUxyWP1vLQ-U7evv-90">
          <mxGeometry x="30" width="150" height="30" as="geometry" />
        </mxCell>
        <mxCell id="hNI0bUxyWP1vLQ-U7evv-93" value="" style="shape=partialRectangle;collapsible=0;dropTarget=0;pointerEvents=0;fillColor=none;top=0;left=0;bottom=0;right=0;points=[[0,0.5],[1,0.5]];portConstraint=eastwest;" vertex="1" parent="hNI0bUxyWP1vLQ-U7evv-86">
          <mxGeometry y="90" width="180" height="30" as="geometry" />
        </mxCell>
        <mxCell id="hNI0bUxyWP1vLQ-U7evv-94" value="" style="shape=partialRectangle;connectable=0;fillColor=none;top=0;left=0;bottom=0;right=0;editable=1;overflow=hidden;" vertex="1" parent="hNI0bUxyWP1vLQ-U7evv-93">
          <mxGeometry width="30" height="30" as="geometry" />
        </mxCell>
        <mxCell id="hNI0bUxyWP1vLQ-U7evv-95" value="Row 2" style="shape=partialRectangle;connectable=0;fillColor=none;top=0;left=0;bottom=0;right=0;align=left;spacingLeft=6;overflow=hidden;" vertex="1" parent="hNI0bUxyWP1vLQ-U7evv-93">
          <mxGeometry x="30" width="150" height="30" as="geometry" />
        </mxCell>
        <mxCell id="hNI0bUxyWP1vLQ-U7evv-96" value="" style="shape=partialRectangle;collapsible=0;dropTarget=0;pointerEvents=0;fillColor=none;top=0;left=0;bottom=0;right=0;points=[[0,0.5],[1,0.5]];portConstraint=eastwest;" vertex="1" parent="hNI0bUxyWP1vLQ-U7evv-86">
          <mxGeometry y="120" width="180" height="30" as="geometry" />
        </mxCell>
        <mxCell id="hNI0bUxyWP1vLQ-U7evv-97" value="" style="shape=partialRectangle;connectable=0;fillColor=none;top=0;left=0;bottom=0;right=0;editable=1;overflow=hidden;" vertex="1" parent="hNI0bUxyWP1vLQ-U7evv-96">
          <mxGeometry width="30" height="30" as="geometry" />
        </mxCell>
        <mxCell id="hNI0bUxyWP1vLQ-U7evv-98" value="Row 3" style="shape=partialRectangle;connectable=0;fillColor=none;top=0;left=0;bottom=0;right=0;align=left;spacingLeft=6;overflow=hidden;" vertex="1" parent="hNI0bUxyWP1vLQ-U7evv-96">
          <mxGeometry x="30" width="150" height="30" as="geometry" />
        </mxCell>
      </root>
    </mxGraphModel>
  </diagram>
</mxfile>
